<?xml version="1.0" encoding="UTF-8" standalone="no"?>
<svg width="22px" height="22px" viewBox="0 0 22 22" version="1.1" xmlns="http://www.w3.org/2000/svg" xmlns:xlink="http://www.w3.org/1999/xlink">
    <!-- Generator: Sketch 43.2 (39069) - http://www.bohemiancoding.com/sketch -->
    <title>Lv1/icon/web app/arrow(fill:blue)</title>
    <desc>Created with Sketch.</desc>
    <defs></defs>
    <g id="Symbols" stroke="none" stroke-width="1" fill="none" fill-rule="evenodd">
        <g id="Lv1/icon/web-app/arrow(fill:blue)" fill="#00BCD4">
            <path d="M13.6715738,14.481734 C13.8732827,14.3102935 14.0059414,14.0593968 14.0208848,13.7742593 L14.3352114,7.77655052 C14.3636819,7.23330221 13.9402903,6.75745517 13.3887624,6.72855082 C12.8333894,6.69944495 12.3667709,7.1219887 12.3379524,7.6718786 L12.0692389,12.7992366 L6.94188092,13.0679501 C6.39863261,13.0964205 5.96964878,13.5672323 5.99855313,14.1187601 C6.027659,14.6741331 6.49666293,15.0940276 7.04655283,15.0652091 L13.0442616,14.7508825 C13.2861225,14.7382071 13.5053345,14.6378535 13.6715738,14.481734 Z" id="Combined-Shape" transform="translate(10.166870, 10.896870) rotate(-45.000000) translate(-10.166870, -10.896870) "></path>
            <path d="M13.8137815,15.5371788 C14.0376246,15.366082 14.1866642,15.1016738 14.2025529,14.7985003 L14.6217223,6.80027173 C14.6499697,6.26127825 14.2271822,5.78283116 13.6762298,5.75395697 L12.6755163,5.7015118 C12.1199825,5.6723975 11.654605,6.09427437 11.6258337,6.64326386 L11.2930481,12.993191 L4.94312097,13.3259766 C4.40412749,13.354224 3.97249472,13.8247068 4.00136891,14.3756592 L4.05381409,15.3763727 C4.08292838,15.9319066 4.55113935,16.3506365 5.10012884,16.3218652 L13.0983574,15.9026958 C13.3848367,15.887682 13.6409865,15.7477365 13.8137815,15.5371788 Z" id="Combined-Shape" transform="translate(9.311530, 11.011677) rotate(-45.000000) translate(-9.311530, -11.011677) "></path>
        </g>
    </g>
</svg>