<?xml version="1.0" encoding="utf-8"?>
<!-- Generator: Adobe Illustrator 19.2.1, SVG Export Plug-In . SVG Version: 6.00 Build 0)  -->
<svg version="1.1" id="レイヤー_1" xmlns="http://www.w3.org/2000/svg" xmlns:xlink="http://www.w3.org/1999/xlink" x="0px"
	 y="0px" viewBox="0 0 22 22" style="enable-background:new 0 0 22 22;" xml:space="preserve">
<style type="text/css">
	.st0{fill:#D29F49;}
</style>
<g id="ico_service_book">
	<path class="st0" d="M14.6,14.8c-1.7,0-2.7,0.3-3.1,0.5V6C12,5.6,13.4,5,15,5c2.3,0,3,0.7,3,0.7l0.2,9.7
		C18.2,15.3,16.9,14.8,14.6,14.8z M18.1,16l-0.4,0.9c0,0-0.8-0.5-2.9-0.5S11.7,17,11.7,17s-0.2,0.5-0.7,0.5S10.3,17,10.3,17
		s-1.1-0.5-3.2-0.5S4.3,17,4.3,17l-0.4-0.9c0,0,1.1-0.6,3.2-0.6s3.9,0.8,3.9,0.8s1.8-0.8,3.9-0.8S18.1,16,18.1,16z M3.8,15.3
		l0.1-9.7c0,0,0.9-0.7,3-0.7c1.6,0,3,0.7,3.6,1v9.3c-0.4-0.2-1.4-0.5-3.1-0.5C5.1,14.8,3.8,15.3,3.8,15.3z"/>
</g>
</svg>
