<?xml version="1.0" encoding="utf-8"?>
<!-- Generator: Adobe Illustrator 19.2.1, SVG Export Plug-In . SVG Version: 6.00 Build 0)  -->
<svg version="1.1" id="レイヤー_1" xmlns="http://www.w3.org/2000/svg" xmlns:xlink="http://www.w3.org/1999/xlink" x="0px"
	 y="0px" viewBox="0 0 22 22" style="enable-background:new 0 0 22 22;" xml:space="preserve">
<style type="text/css">
	.st0{fill:#D29F49;}
</style>
<g id="ico_service_hikari">
	<path class="st0" d="M15,15.9l-5,0.3l1.5-5.7H5.5l0.3-0.6h4.4L10,9.5l0.9-4h1.8l-1.4,5.1h5.5l-0.3,0.6h-3l-1.2,4.2l3.5-0.3
		c2.8-2.7,3.6-6.5,1.7-9c-2.1-2.8-6.6-2.8-10.2-0.1s-4.7,7.1-2.6,9.9l-1.2,1.5h1.9L5.6,17l0,0c1,0.7,2.4,1.1,3.7,1.1l0,0
		c3.8,0.2,6.9-1.3,9-2.5L15,15.9L15,15.9z M16.6,6.5l-3.4,3.6h-0.9l2.1-3.5L16.6,6.5z M8.2,6.6L10,9.5H8.2L7.7,6.6H8.2z M5.8,16.9
		c0,0-0.6-0.4-1-1.1l3.6-4.5h2L5.8,16.9z"/>
</g>
</svg>
