<?xml version="1.0" encoding="utf-8"?>
<!-- Generator: Adobe Illustrator 21.1.0, SVG Export Plug-In . SVG Version: 6.00 Build 0)  -->
<svg version="1.1" id="レイヤー_1" xmlns="http://www.w3.org/2000/svg" xmlns:xlink="http://www.w3.org/1999/xlink" x="0px"
	 y="0px" viewBox="0 0 22 22" style="enable-background:new 0 0 22 22;" xml:space="preserve">
<style type="text/css">
	.st0{fill:#E76D86;}
</style>
<g>
	<path class="st0" d="M17.19872,5.93811c0,0,1.19631,1.49489,1.19631,5.077c0,3.86312-3.49106,6.9948-7.35417,6.9948
		c-0.13233,0-0.26376-0.00382-0.39429-0.01107c-0.89407-0.59064-1.7675-1.6831-2.20182-3.68472c0,0-0.36926-0.16737-0.88655-0.15034
		c-0.97698,0.04084-2.03567,1.0634-1.65118,2.34699c0.16454,0.53826,0.82254,1.7309,3.48497,2.31536
		c0.89499,0.18565,1.84539,0.2383,2.7511,0.09529c2.78276-0.34253,6.87774-2.94577,6.87774-7.90632
		C19.023,8.07876,17.19872,5.93811,17.19872,5.93811z"/>
	<path class="st0" d="M12.83784,12.42489c-0.58664-0.59341-1.20039-1.05848-1.79868-1.44862
		C9.3619,9.88272,7.80615,9.37911,7.31006,8.29562C7.30971,8.29479,7.30922,8.29398,7.30884,8.29315
		c-0.00019,0.0003-0.00037,0.00057-0.00037,0.00057C6.7073,9.11403,6.85012,10.07352,7.24465,10.899
		c0.68548,1.16233,1.78813,1.72058,2.61534,1.93156c4.37938,1.11701,3.85997,4.28778,3.85997,4.28778
		c0.25694-0.73141,0.38861-1.7775,0.2604-2.4938C13.85602,13.92983,13.62846,13.33201,12.83784,12.42489z"/>
	<path class="st0" d="M13.07333,16.09842c-0.67895-1.81556-3.37756-2.80936-3.37756-2.80936
		c-0.25361,0.4591-0.38179,1.98187,2.13629,2.98318c1.27375,0.50659,1.52924,1.04126,1.52924,1.04126
		C13.25213,16.7133,13.12375,16.22866,13.07333,16.09842z"/>
	<path class="st0" d="M14.23969,10.31102c-1.10043-0.94431-4.15104-2.9053-5.12305-4.41083
		C8.95893,5.58732,8.84159,5.23571,9.13808,4.78418C9.02822,4.80108,8.92211,4.82824,8.82039,4.86418
		C7.93804,5.15927,6.75297,6.56192,8.50997,8.34446c1.06114,1.07652,3.68008,2.09785,5.23634,3.71923
		c1.42288,1.48242,0.85475,4.1852,0.75156,4.40127c0.73187-0.81266,1.01181-1.5785,1.12956-2.33863
		C15.85646,12.64782,15.21298,11.14623,14.23969,10.31102z"/>
	<path class="st0" d="M4.84295,16.06189c0,0-1.19631-1.49489-1.19631-5.077c0-3.86312,3.49106-6.9948,7.35417-6.9948
		c0.13233,0,0.26377,0.00382,0.39429,0.01107c0.89407,0.59064,1.7675,1.6831,2.20182,3.68472c0,0,0.36926,0.16737,0.88656,0.15034
		c0.97698-0.04084,2.03567-1.0634,1.65118-2.34699c-0.16454-0.53826-0.82254-1.7309-3.48497-2.31536
		c-0.89499-0.18565-1.84539-0.2383-2.7511-0.09529C7.11581,3.4211,3.02084,6.02434,3.02084,10.98489
		C3.01866,13.86866,4.84295,16.06189,4.84295,16.06189z"/>
</g>
</svg>
