<?xml version="1.0" encoding="utf-8"?>
<!-- Generator: Adobe Illustrator 19.2.1, SVG Export Plug-In . SVG Version: 6.00 Build 0)  -->
<svg version="1.1" id="レイヤー_1" xmlns="http://www.w3.org/2000/svg" xmlns:xlink="http://www.w3.org/1999/xlink" x="0px"
	 y="0px" viewBox="0 0 22 22" style="enable-background:new 0 0 22 22;" xml:space="preserve">
<style type="text/css">
	.st0{fill:#7384CA;}
</style>
<g id="ico_service_mvno">
	<path id="長方形-1" class="st0" d="M17.8,17.5h-6.9c-0.8,0-1.4-0.6-1.4-1.4V5.5c0-0.8,0.7-1.4,1.4-1.4h6.9
		c0.8,0,1.4,0.6,1.4,1.4v10.7C19.2,16.9,18.6,17.5,17.8,17.5z M14.3,16.9c0.6,0,1-0.5,1-1c0-0.6-0.5-1-1-1s-1,0.5-1,1
		C13.3,16.4,13.8,16.9,14.3,16.9z M18.5,5.9c0-0.6-0.5-1-1-1h-6.3c-0.6,0-1,0.5-1,1v7.2c0,0.6,0.5,1,1,1h6.3c0.6,0,1-0.5,1-1V5.9z
		 M2.9,10.6l1.3-1.3h4.6v8.3H2.9V10.6z M5.7,12H5v1.4h0.7C5.7,13.5,5.7,12,5.7,12z M6.7,12H6.1v1.4h0.7V12z M8.2,12h-1v1.4h1V12z
		 M7.1,16.9h1v-1.4h-1V16.9z M6.1,16.9h0.7v-1.4H6.1V16.9z M5,16.9h0.7v-1.4H5V16.9z M3.6,16.9h1v-1.4h-1V16.9z M3.6,15.2h4.6v-1.4
		H3.6V15.2z M3.6,13.4h1v-1.4h-1V13.4z"/>
</g>
</svg>
