<?xml version="1.0" encoding="utf-8"?>
<!-- Generator: Adobe Illustrator 19.2.1, SVG Export Plug-In . SVG Version: 6.00 Build 0)  -->
<svg version="1.1" id="レイヤー_1" xmlns="http://www.w3.org/2000/svg" xmlns:xlink="http://www.w3.org/1999/xlink" x="0px"
	 y="0px" viewBox="0 0 22 22" style="enable-background:new 0 0 22 22;" xml:space="preserve">
<style type="text/css">
	.st0{fill:#C66F6D;}
</style>
<g id="ico_service_rent">
	<path id="_x33_2px_1_" class="st0" d="M14.103,18.181c-1.728,0-3.282-0.731-4.378-1.894v2.579h-2.03v-3.157H3.8V4.6h10.303v1.701
		l0,0c3.306,0,5.997,2.664,5.997,5.94C20.1,15.516,17.41,18.181,14.103,18.181z M5.624,7.707v2.028h3.051
		c0.369-0.783,0.903-1.475,1.563-2.028H5.624z M14.103,7.069c-2.879,0-5.221,2.32-5.221,5.173c0,2.852,2.343,5.172,5.221,5.172
		c1.157,0,2.227-0.375,3.094-1.008l-1.452-1.777c-0.468,0.317-1.033,0.502-1.642,0.502c-1.608,0-2.917-1.296-2.917-2.889
		c0-1.594,1.309-2.89,2.917-2.89c1.608,0,2.917,1.296,2.917,2.89c0,0.48-0.121,0.932-0.33,1.331l1.832,1.419
		c0.508-0.798,0.802-1.74,0.802-2.75C19.325,9.389,16.983,7.069,14.103,7.069z M16.246,12.241c0-1.17-0.96-2.122-2.142-2.122
		c-1.181,0-2.142,0.952-2.142,2.122s0.961,2.122,2.142,2.122C15.285,14.364,16.246,13.412,16.246,12.241z M14.103,13.239
		c-0.557,0-1.007-0.447-1.007-0.998c0-0.551,0.45-0.998,1.007-0.998c0.557,0,1.007,0.446,1.007,0.998
		C15.111,12.792,14.66,13.239,14.103,13.239z"/>
</g>
</svg>
